<?xml version="1.0" encoding="UTF-8"?>
<svg id="Layer_2" xmlns="http://www.w3.org/2000/svg" viewBox="0 0 84.62 83.46">
  <defs>
    <style>
      .cls-1 {
        fill: #f5f5f5;
      }
    </style>
  </defs>
  <g id="Layer_2-2" data-name="Layer_2">
    <path class="cls-1" d="M77.52,0H7.1C3.18,0,0,3.18,0,7.1v69.09c0,.6.06,1.18.18,1.74,1.1,5.24,7.58,7.25,11.72,3.85l19.25-15.79c5.25-4.31,6.09-12.08,1.88-17.41-4.27-5.4-8.84-9.3-13.05-12.12-1.12-.75-1.56-2.01-1.47-3.22-.09-1.06.35-2.16,1.47-2.81,3.77-2.21,7.83-5.17,11.7-9.16,3.41-3.52,6.02-7.14,8.01-10.54.62-1.05,1.63-1.5,2.62-1.48,1-.02,2.01.43,2.62,1.48,1.99,3.4,4.6,7.03,8.01,10.54,3.87,3.99,7.93,6.96,11.7,9.16,1.12.65,1.56,1.76,1.47,2.81.09,1.21-.35,2.47-1.47,3.22-4.22,2.82-8.78,6.72-13.05,12.12-4.21,5.33-3.37,13.1,1.88,17.41l19.09,15.66c4.44,3.64,11.44,1.09,12.01-4.62.03-.28.04-.56.04-.85V7.1c0-3.92-3.18-7.1-7.1-7.1Z"/>
  </g>
</svg>