<?xml version="1.0" encoding="UTF-8"?>
<svg id="Layer_2" xmlns="http://www.w3.org/2000/svg" viewBox="0 0 1186.67 173.78">
  <defs>
    <style>
      .cls-1 {
        fill: #231e1e;
      }
    </style>
  </defs>
  <g id="Layer_2-2" data-name="Layer_2">
    <g>
      <path class="cls-1" d="M161.43,0H14.79C6.62,0,0,6.62,0,14.79v143.86c0,1.25.13,2.46.38,3.63,2.29,10.91,15.79,15.09,24.41,8.02l40.08-32.88c10.93-8.97,12.68-25.16,3.91-36.25-8.89-11.24-18.4-19.37-27.18-25.23-2.33-1.56-3.24-4.18-3.06-6.7-.19-2.2.73-4.5,3.06-5.86,7.86-4.6,16.3-10.77,24.37-19.08,7.11-7.32,12.54-14.87,16.69-21.96,1.28-2.19,3.39-3.13,5.47-3.09,2.08-.04,4.18.9,5.47,3.09,4.15,7.09,9.58,14.63,16.69,21.96,8.07,8.31,16.51,14.48,24.37,19.08,2.33,1.36,3.24,3.66,3.06,5.86.19,2.51-.73,5.14-3.06,6.7-8.78,5.86-18.28,13.99-27.18,25.23-8.77,11.09-7.03,27.28,3.91,36.25l39.76,32.62c9.25,7.58,23.82,2.28,25.01-9.62.06-.58.09-1.17.09-1.77V14.79c0-8.17-6.62-14.79-14.79-14.79Z"/>
      <g>
        <path class="cls-1" d="M215.07,34.78c0-8.52,6.73-15.25,15.25-15.25h48.13c17.63,0,31.29,4.95,40.4,14.06,7.72,7.72,11.88,18.62,11.88,31.69v.4c0,21.79-10.89,35.25-27.73,42.18l21.19,25.75c2.97,3.76,4.95,6.93,4.95,11.69,0,8.52-7.13,14.06-14.46,14.06-6.93,0-11.49-3.37-15.05-7.92l-29.71-37.63h-24.36v30.3c0,8.52-6.73,15.25-15.25,15.25s-15.25-6.73-15.25-15.25V34.78ZM276.47,86.87c14.85,0,23.37-7.92,23.37-19.61v-.4c0-13.07-9.11-19.81-23.96-19.81h-30.3v39.81h30.9Z"/>
        <path class="cls-1" d="M400.05,160.54c-31.89,0-55.45-22.38-55.45-54.86v-.4c0-30.3,21.59-55.26,52.48-55.26,35.45,0,51.1,29.11,51.1,51.1,0,8.71-6.14,14.46-14.06,14.46h-59.61c2.97,13.66,12.48,20.8,25.94,20.8,8.32,0,15.25-2.58,21.39-7.13,2.18-1.58,4.16-2.38,7.33-2.38,6.73,0,11.69,5.15,11.69,11.88,0,3.96-1.78,6.93-3.96,8.91-9.31,7.92-21.39,12.87-36.84,12.87ZM419.45,96.77c-1.78-13.47-9.7-22.58-22.38-22.58s-20.6,8.91-22.97,22.58h45.35Z"/>
        <path class="cls-1" d="M467.77,65.87c0-8.32,6.73-15.05,15.05-15.05s15.05,6.73,15.05,15.05v1.19c6.93-8.91,16.04-17.03,31.29-17.03,13.86,0,24.36,6.14,29.91,16.83,9.31-10.89,20.4-16.83,34.86-16.83,22.38,0,35.85,13.47,35.85,39.02v55.26c0,8.32-6.73,15.05-15.05,15.05s-15.05-6.73-15.05-15.05v-45.35c0-14.26-6.34-21.59-17.63-21.59s-18.22,7.33-18.22,21.59v45.35c0,8.32-6.73,15.05-15.05,15.05s-15.05-6.73-15.05-15.05v-45.35c0-14.26-6.34-21.59-17.63-21.59s-18.22,7.33-18.22,21.59v45.35c0,8.32-6.73,15.05-15.05,15.05s-15.05-6.73-15.05-15.05v-78.43Z"/>
        <path class="cls-1" d="M652.15,26.66c0-8.71,7.33-14.06,16.83-14.06s16.83,5.35,16.83,14.06v.4c0,8.71-7.33,14.26-16.83,14.26s-16.83-5.55-16.83-14.26v-.4ZM653.94,65.87c0-8.32,6.73-15.05,15.05-15.05s15.05,6.73,15.05,15.05v78.43c0,8.32-6.73,15.05-15.05,15.05s-15.05-6.73-15.05-15.05v-78.43Z"/>
        <path class="cls-1" d="M708.99,65.87c0-8.32,6.73-15.05,15.05-15.05s15.05,6.73,15.05,15.05v1.19c6.93-8.91,15.84-17.03,31.09-17.03,22.78,0,36.04,15.05,36.04,39.41v54.86c0,8.32-6.73,15.05-15.05,15.05s-15.05-6.73-15.05-15.05v-45.35c0-14.26-6.73-21.59-18.22-21.59s-18.81,7.33-18.81,21.59v45.35c0,8.32-6.73,15.05-15.05,15.05s-15.05-6.73-15.05-15.05v-78.43Z"/>
        <path class="cls-1" d="M828.6,26.66c0-8.71,7.33-14.06,16.83-14.06s16.83,5.35,16.83,14.06v.4c0,8.71-7.33,14.26-16.83,14.26s-16.83-5.55-16.83-14.26v-.4ZM830.39,65.87c0-8.32,6.73-15.05,15.05-15.05s15.05,6.73,15.05,15.05v78.43c0,8.32-6.73,15.05-15.05,15.05s-15.05-6.73-15.05-15.05v-78.43Z"/>
        <path class="cls-1" d="M882.67,148.06c-3.17-1.98-5.74-5.54-5.74-10.3,0-6.73,5.15-11.88,11.88-11.88,2.18,0,4.36.59,5.94,1.58,10.1,6.34,20.2,9.51,28.72,9.51s12.68-3.17,12.68-7.92v-.4c0-6.54-10.3-8.71-21.98-12.28-14.85-4.36-31.69-11.29-31.69-31.88v-.4c0-21.59,17.43-33.67,38.82-33.67,11.09,0,22.58,2.97,32.87,8.12,4.36,2.18,7.13,6.14,7.13,11.29,0,6.73-5.35,11.88-12.08,11.88-2.18,0-3.57-.4-5.54-1.39-8.52-4.16-16.64-6.73-22.97-6.73-7.33,0-11.09,3.17-11.09,7.33v.4c0,5.94,10.1,8.71,21.59,12.68,14.85,4.95,32.08,12.08,32.08,31.49v.4c0,23.57-17.63,34.26-40.6,34.26-13.07,0-27.13-3.76-40.01-12.08Z"/>
        <path class="cls-1" d="M976.34,105.68v-.4c0-30.3,23.17-55.26,55.65-55.26,16.04,0,27.33,4.36,36.24,11.88,1.98,1.58,4.75,5.15,4.75,10.3,0,7.53-6.14,13.47-13.67,13.47-3.96,0-6.93-1.58-8.71-2.97-5.35-4.16-10.89-6.73-18.81-6.73-15.05,0-25.75,13.27-25.75,28.92v.4c0,16.24,10.5,29.31,26.93,29.31,7.92,0,14.06-2.77,19.81-7.33,1.59-1.19,4.56-2.77,8.12-2.77,7.13,0,12.68,5.74,12.68,12.87,0,3.96-1.78,7.13-4.36,9.51-8.91,8.12-20.2,13.67-37.63,13.67-31.89,0-55.26-24.56-55.26-54.86Z"/>
        <path class="cls-1" d="M1138.54,160.54c-31.89,0-55.45-22.38-55.45-54.86v-.4c0-30.3,21.59-55.26,52.48-55.26,35.45,0,51.1,29.11,51.1,51.1,0,8.71-6.14,14.46-14.06,14.46h-59.61c2.97,13.66,12.48,20.8,25.94,20.8,8.32,0,15.25-2.58,21.39-7.13,2.18-1.58,4.16-2.38,7.33-2.38,6.73,0,11.68,5.15,11.68,11.88,0,3.96-1.78,6.93-3.96,8.91-9.31,7.92-21.39,12.87-36.84,12.87ZM1157.95,96.77c-1.78-13.47-9.7-22.58-22.38-22.58s-20.6,8.91-22.97,22.58h45.35Z"/>
      </g>
    </g>
  </g>
</svg>