<?xml version="1.0" encoding="UTF-8"?>
<svg id="Layer_2" xmlns="http://www.w3.org/2000/svg" viewBox="0 0 84.26 84.26">
  <defs>
    <style>
      .cls-1 {
        fill: #f5f5f5;
      }
    </style>
  </defs>
  <g id="Layer_2-2" data-name="Layer_2">
    <g>
      <path class="cls-1" d="M42,18.25c12.96,0,23.5,10.54,23.5,23.5s-10.54,23.5-23.5,23.5-23.5-10.54-23.5-23.5,10.54-23.5,23.5-23.5M42,8.25c-18.5,0-33.5,15-33.5,33.5h0c0,18.5,15,33.5,33.5,33.5s33.5-15,33.5-33.5h0c0-18.5-15-33.5-33.5-33.5h0Z"/>
      <g>
        <path class="cls-1" d="M16.06,9.74c-.65,0-1.31.25-1.81.74l-3.28,3.22c-1.02,1-1.03,2.63-.03,3.65l5.28,5.37c.51.51,1.17.77,1.84.77s1.31-.25,1.81-.74l3.28-3.22c1.02-1,1.03-2.63.03-3.65l-5.28-5.37c-.5-.51-1.17-.77-1.84-.77h0Z"/>
        <path class="cls-1" d="M40.17,0c-1.41,0-2.57,1.14-2.58,2.56l-.06,7.53c-.01,1.42,1.13,2.59,2.56,2.6l4.6.04s.02,0,.02,0c1.41,0,2.57-1.14,2.58-2.56l.06-7.53c.01-1.42-1.13-2.59-2.56-2.6L40.19,0s-.02,0-.02,0h0Z"/>
        <path class="cls-1" d="M68.71,10.2c-.65,0-1.31.25-1.81.74l-5.37,5.28c-1.02,1-1.03,2.63-.03,3.65l3.22,3.28c.5.51,1.17.77,1.84.77s1.31-.25,1.81-.74l5.37-5.28c1.02-1,1.03-2.63.03-3.65l-3.22-3.28c-.5-.51-1.17-.77-1.84-.77h0Z"/>
        <path class="cls-1" d="M74.15,37.53c-1.41,0-2.57,1.14-2.58,2.56l-.04,4.6c-.01,1.42,1.13,2.59,2.56,2.6l7.53.06s.02,0,.02,0c1.41,0,2.57-1.14,2.58-2.56l.04-4.6c.01-1.42-1.13-2.59-2.56-2.6l-7.53-.06s-.02,0-.02,0h0Z"/>
        <path class="cls-1" d="M66.2,60.76c-.65,0-1.31.25-1.81.74l-3.28,3.22c-1.02,1-1.03,2.63-.03,3.65l5.28,5.37c.5.51,1.17.77,1.84.77s1.31-.25,1.81-.74l3.28-3.22c1.02-1,1.03-2.63.03-3.65l-5.28-5.37c-.51-.51-1.17-.77-1.84-.77h0Z"/>
        <path class="cls-1" d="M39.55,71.53c-1.41,0-2.57,1.14-2.58,2.56l-.06,7.53c-.01,1.42,1.13,2.59,2.56,2.6l4.6.04s.02,0,.02,0c1.41,0,2.57-1.14,2.58-2.56l.06-7.53c.01-1.42-1.13-2.59-2.56-2.6l-4.6-.04s-.02,0-.02,0h0Z"/>
        <path class="cls-1" d="M17.69,60.34c-.65,0-1.31.25-1.81.74l-5.37,5.28c-1.02,1-1.03,2.63-.03,3.65l3.22,3.28c.5.51,1.17.77,1.84.77s1.31-.25,1.81-.74l5.37-5.28c1.02-1,1.03-2.63.03-3.65l-3.22-3.28c-.5-.51-1.17-.77-1.84-.77h0Z"/>
        <path class="cls-1" d="M2.62,36.91c-1.41,0-2.57,1.14-2.58,2.56L0,44.06c-.01,1.42,1.13,2.59,2.56,2.6l7.53.06s.02,0,.02,0c1.41,0,2.57-1.14,2.58-2.56l.04-4.6c.01-1.42-1.13-2.59-2.56-2.6l-7.53-.06s-.02,0-.02,0h0Z"/>
      </g>
    </g>
  </g>
</svg>